<svg 
 xmlns="http://www.w3.org/2000/svg"
 xmlns:xlink="http://www.w3.org/1999/xlink"
 width="351.5px" height="188.5px">
<path fill-rule="evenodd"  stroke="rgb(0, 0, 0)" stroke-width="1px" stroke-linecap="butt" stroke-linejoin="miter" fill="rgb(40, 40, 40)"
 d="M330.000,62.000 C329.333,61.667 327.167,62.833 327.167,60.314 C323.988,45.844 319.273,33.675 312.148,29.429 C304.665,23.250 290.254,20.668 278.241,26.684 C265.492,30.380 256.479,47.509 253.122,71.000 C251.513,85.1000 251.350,100.1000 253.279,117.191 C254.517,127.037 258.093,140.705 264.864,148.969 C267.881,157.279 288.081,168.065 306.371,161.298 C320.221,154.342 323.967,148.582 334.000,132.247 C339.000,134.282 343.1000,134.800 349.253,137.436 C346.589,155.266 338.892,165.125 331.018,171.161 C322.977,181.726 292.419,190.317 272.241,184.460 C246.288,176.221 239.416,168.158 227.757,153.757 C229.724,149.391 228.800,142.133 229.300,134.023 C207.814,137.070 214.575,101.635 230.000,102.1000 C230.000,96.667 230.000,90.333 229.000,82.1000 C224.000,82.1000 219.000,82.1000 212.299,83.628 C211.302,73.209 214.857,60.989 219.272,48.495 C226.051,33.418 232.247,26.764 243.119,17.902 C249.931,11.098 273.485,0.691 289.423,1.318 C306.366,-0.496 333.282,9.226 342.1000,18.000 C342.1000,32.333 342.1000,46.667 341.1000,61.077 C338.333,60.152 334.667,62.848 330.000,62.000 ZM224.000,93.1000 C223.667,95.000 224.833,96.000 222.677,98.857 C212.170,98.696 211.182,117.993 203.450,123.550 C207.753,130.913 214.362,135.971 222.000,140.1000 C222.000,142.000 222.000,142.1000 222.000,144.1000 C222.833,147.167 220.667,144.833 218.907,146.719 C208.205,148.630 192.744,144.788 188.340,137.158 C180.261,149.039 141.884,151.443 135.976,136.517 C130.499,129.047 127.406,115.705 133.343,105.343 C136.517,97.850 143.410,94.076 150.510,89.026 C145.519,81.463 142.656,70.037 147.230,59.706 C151.793,52.999 154.200,48.914 165.509,45.833 C181.142,45.820 190.828,50.232 194.608,62.464 C196.040,79.300 188.226,83.414 176.305,89.749 C176.151,94.342 182.289,97.639 184.628,102.372 C187.556,106.444 190.972,110.028 194.000,115.000 C194.1000,115.000 195.1000,115.000 196.894,113.864 C198.098,112.965 197.958,110.423 199.1000,107.000 C199.1000,105.1000 199.1000,104.1000 198.1000,102.1000 C199.833,101.167 197.667,102.333 195.955,102.000 C192.603,99.667 196.286,97.333 194.1000,93.1000 C195.333,93.333 194.167,91.167 196.1000,92.253 C204.667,91.060 212.333,91.840 221.000,91.1000 C222.000,92.333 223.000,91.167 224.000,93.1000 ZM168.819,56.742 C157.987,58.717 164.481,77.824 168.358,80.245 C177.068,80.959 184.187,57.636 168.819,56.742 ZM155.825,98.175 C149.206,103.978 149.927,118.347 155.397,125.077 C157.832,131.662 171.317,133.972 179.870,130.058 C171.577,119.090 164.769,107.565 155.825,98.175 ZM116.786,45.786 C112.366,49.700 109.381,55.048 104.121,59.121 C101.025,63.358 96.189,65.856 94.443,72.200 C104.015,87.446 115.688,109.861 125.761,129.737 C138.658,148.022 142.463,164.137 166.864,173.1000 C168.299,176.333 167.590,180.167 167.500,183.500 C168.333,184.167 166.667,184.833 164.943,184.057 C148.254,183.746 130.874,184.279 114.500,183.500 C97.928,158.359 83.141,127.991 66.1000,102.000 C67.833,100.167 65.667,101.333 64.606,101.606 C61.884,106.217 56.713,108.380 55.1000,115.1000 C55.1000,126.1000 55.1000,137.1000 56.078,149.653 C55.067,162.748 57.886,172.568 71.000,173.1000 C71.000,176.333 71.000,178.667 71.000,181.1000 C70.667,182.667 71.833,184.833 68.1000,183.1000 C46.667,183.1000 24.187,184.085 1.500,184.500 C1.353,182.171 2.000,178.333 1.375,174.885 C8.408,171.490 13.520,171.317 15.1000,162.1000 C15.1000,136.1000 15.1000,111.000 15.1000,84.000 C15.1000,71.333 15.1000,58.667 15.843,45.010 C16.297,32.611 18.235,15.521 3.110,13.890 C1.058,12.276 2.397,7.270 2.000,4.000 C24.333,4.000 46.667,4.000 70.330,3.846 C71.438,5.053 71.438,11.947 70.070,13.949 C66.081,14.161 62.337,16.646 59.569,17.241 C52.158,36.707 58.112,61.661 57.219,83.219 C66.137,73.137 74.773,62.773 84.120,52.120 C88.184,46.851 92.751,42.084 97.418,36.456 C101.004,30.437 107.165,28.007 108.121,17.879 C107.010,16.657 106.518,14.816 102.1000,14.000 C101.1000,14.000 100.1000,14.000 98.758,14.242 C96.974,12.359 97.088,6.579 97.500,3.500 C117.167,3.500 137.924,2.500 158.500,3.500 C159.380,5.833 158.534,9.126 158.500,12.500 C137.706,22.353 138.764,23.194 116.786,45.786 Z"/>
</svg>
